<?xml version="1.0" encoding="UTF-8"?> <svg xmlns="http://www.w3.org/2000/svg" id="_イヤー_1" viewBox="0 0 100 100"><defs><style>.cls-1{fill:#0d3246;}</style></defs><path class="cls-1" d="M49.98,0C22.34,0,0,22.38,0,49.98c0,21.18,13.16,39.28,31.76,46.57-.45-3.95-.82-10.04,.16-14.36,.91-3.91,5.84-24.85,5.84-24.85,0,0-1.48-3-1.48-7.4,0-6.95,4.03-12.13,9.05-12.13,4.28,0,6.33,3.21,6.33,7.03,0,4.28-2.72,10.7-4.15,16.66-1.19,4.98,2.51,9.05,7.4,9.05,8.89,0,15.71-9.38,15.71-22.87,0-11.97-8.6-20.32-20.9-20.32-14.23,0-22.58,10.65-22.58,21.68,0,4.28,1.65,8.89,3.7,11.39,.41,.49,.45,.95,.33,1.44-.37,1.56-1.23,4.98-1.4,5.68-.21,.91-.74,1.11-1.69,.66-6.17-2.96-10.04-12.09-10.04-19.42,0-15.75,11.44-30.23,33.03-30.23,17.32,0,30.81,12.34,30.81,28.88s-10.86,31.1-25.92,31.1c-5.06,0-9.83-2.63-11.44-5.76,0,0-2.51,9.54-3.13,11.89-1.11,4.36-4.15,9.79-6.21,13.12,4.69,1.44,9.63,2.22,14.81,2.22,27.6,0,49.98-22.38,49.98-49.98-.04-27.64-22.42-50.02-50.02-50.02Z"></path></svg> 